G04 #@! TF.GenerationSoftware,KiCad,Pcbnew,5.1.10-88a1d61d58~88~ubuntu18.04.1*
G04 #@! TF.CreationDate,2022-03-10T08:37:22-06:00*
G04 #@! TF.ProjectId,keyboard,6b657962-6f61-4726-942e-6b696361645f,rev?*
G04 #@! TF.SameCoordinates,Original*
G04 #@! TF.FileFunction,Soldermask,Top*
G04 #@! TF.FilePolarity,Negative*
%FSLAX46Y46*%
G04 Gerber Fmt 4.6, Leading zero omitted, Abs format (unit mm)*
G04 Created by KiCad (PCBNEW 5.1.10-88a1d61d58~88~ubuntu18.04.1) date 2022-03-10 08:37:22*
%MOMM*%
%LPD*%
G01*
G04 APERTURE LIST*
%ADD10C,2.200000*%
%ADD11C,1.750000*%
%ADD12C,3.000000*%
%ADD13C,3.987800*%
%ADD14C,3.048000*%
%ADD15C,1.752600*%
%ADD16R,1.752600X1.752600*%
G04 APERTURE END LIST*
D10*
X241284800Y-73020400D03*
X241284800Y12699200D03*
X-9524400Y-73020400D03*
X-9524400Y12699200D03*
D11*
X194774300Y-58733800D03*
X184614300Y-58733800D03*
D12*
X185884300Y-56193800D03*
D13*
X189694300Y-58733800D03*
D12*
X192234300Y-53653800D03*
D11*
X47146100Y-58733800D03*
X36986100Y-58733800D03*
D12*
X38256100Y-56193800D03*
D13*
X42066100Y-58733800D03*
D12*
X44606100Y-53653800D03*
D11*
X170963300Y-58733800D03*
X160803300Y-58733800D03*
D12*
X162073300Y-56193800D03*
D13*
X165883300Y-58733800D03*
D12*
X168423300Y-53653800D03*
D11*
X70957100Y-58733800D03*
X60797100Y-58733800D03*
D12*
X62067100Y-56193800D03*
D13*
X65877100Y-58733800D03*
D12*
X68417100Y-53653800D03*
D11*
X216204200Y-58733800D03*
X206044200Y-58733800D03*
D12*
X207314200Y-56193800D03*
D13*
X211124200Y-58733800D03*
D12*
X213664200Y-53653800D03*
D13*
X122991000Y-66988800D03*
X146867000Y-66988800D03*
D14*
X122991000Y-51748800D03*
X146867000Y-51748800D03*
D11*
X140009000Y-58733800D03*
X129849000Y-58733800D03*
D12*
X131119000Y-56193800D03*
D13*
X134929000Y-58733800D03*
D12*
X137469000Y-53653800D03*
D13*
X84893400Y-66988800D03*
X108769400Y-66988800D03*
D14*
X84893400Y-51748800D03*
X108769400Y-51748800D03*
D11*
X101911400Y-58733800D03*
X91751400Y-58733800D03*
D12*
X93021400Y-56193800D03*
D13*
X96831400Y-58733800D03*
D12*
X99371400Y-53653800D03*
D11*
X25716200Y-58733800D03*
X15556200Y-58733800D03*
D12*
X16826200Y-56193800D03*
D13*
X20636200Y-58733800D03*
D12*
X23176200Y-53653800D03*
D11*
X111435800Y-39685000D03*
X101275800Y-39685000D03*
D12*
X102545800Y-37145000D03*
D13*
X106355800Y-39685000D03*
D12*
X108895800Y-34605000D03*
D11*
X54289400Y-39685000D03*
X44129400Y-39685000D03*
D12*
X45399400Y-37145000D03*
D13*
X49209400Y-39685000D03*
D12*
X51749400Y-34605000D03*
D11*
X130484600Y-39685000D03*
X120324600Y-39685000D03*
D12*
X121594600Y-37145000D03*
D13*
X125404600Y-39685000D03*
D12*
X127944600Y-34605000D03*
D11*
X35240600Y-39685000D03*
X25080600Y-39685000D03*
D12*
X26350600Y-37145000D03*
D13*
X30160600Y-39685000D03*
D12*
X32700600Y-34605000D03*
D11*
X149533400Y-39685000D03*
X139373400Y-39685000D03*
D12*
X140643400Y-37145000D03*
D13*
X144453400Y-39685000D03*
D12*
X146993400Y-34605000D03*
D11*
X11429600Y-39685000D03*
X1269600Y-39685000D03*
D12*
X2539600Y-37145000D03*
D13*
X6349600Y-39685000D03*
D12*
X8889600Y-34605000D03*
D11*
X168582200Y-39685000D03*
X158422200Y-39685000D03*
D12*
X159692200Y-37145000D03*
D13*
X163502200Y-39685000D03*
D12*
X166042200Y-34605000D03*
D11*
X73338200Y-39685000D03*
X63178200Y-39685000D03*
D12*
X64448200Y-37145000D03*
D13*
X68258200Y-39685000D03*
D12*
X70798200Y-34605000D03*
D11*
X187631000Y-39685000D03*
X177471000Y-39685000D03*
D12*
X178741000Y-37145000D03*
D13*
X182551000Y-39685000D03*
D12*
X185091000Y-34605000D03*
D11*
X230490800Y-39685000D03*
X220330800Y-39685000D03*
D12*
X221600800Y-37145000D03*
D13*
X225410800Y-39685000D03*
D12*
X227950800Y-34605000D03*
D11*
X92387000Y-39685000D03*
X82227000Y-39685000D03*
D12*
X83497000Y-37145000D03*
D13*
X87307000Y-39685000D03*
D12*
X89847000Y-34605000D03*
D11*
X206679800Y-39685000D03*
X196519800Y-39685000D03*
D12*
X197789800Y-37145000D03*
D13*
X201599800Y-39685000D03*
D12*
X204139800Y-34605000D03*
D11*
X187631000Y-20636200D03*
X177471000Y-20636200D03*
D12*
X178741000Y-18096200D03*
D13*
X182551000Y-20636200D03*
D12*
X185091000Y-15556200D03*
D11*
X168582200Y-20636200D03*
X158422200Y-20636200D03*
D12*
X159692200Y-18096200D03*
D13*
X163502200Y-20636200D03*
D12*
X166042200Y-15556200D03*
D11*
X230490800Y-20636200D03*
X220330800Y-20636200D03*
D12*
X221600800Y-18096200D03*
D13*
X225410800Y-20636200D03*
D12*
X227950800Y-15556200D03*
D11*
X130484600Y-20636200D03*
X120324600Y-20636200D03*
D12*
X121594600Y-18096200D03*
D13*
X125404600Y-20636200D03*
D12*
X127944600Y-15556200D03*
D11*
X111435800Y-20636200D03*
X101275800Y-20636200D03*
D12*
X102545800Y-18096200D03*
D13*
X106355800Y-20636200D03*
D12*
X108895800Y-15556200D03*
D11*
X92387000Y-20636200D03*
X82227000Y-20636200D03*
D12*
X83497000Y-18096200D03*
D13*
X87307000Y-20636200D03*
D12*
X89847000Y-15556200D03*
D11*
X73338200Y-20636200D03*
X63178200Y-20636200D03*
D12*
X64448200Y-18096200D03*
D13*
X68258200Y-20636200D03*
D12*
X70798200Y-15556200D03*
D11*
X54289400Y-20636200D03*
X44129400Y-20636200D03*
D12*
X45399400Y-18096200D03*
D13*
X49209400Y-20636200D03*
D12*
X51749400Y-15556200D03*
D11*
X35240600Y-20636200D03*
X25080600Y-20636200D03*
D12*
X26350600Y-18096200D03*
D13*
X30160600Y-20636200D03*
D12*
X32700600Y-15556200D03*
D11*
X11429600Y-20636200D03*
X1269600Y-20636200D03*
D12*
X2539600Y-18096200D03*
D13*
X6349600Y-20636200D03*
D12*
X8889600Y-15556200D03*
D11*
X149533400Y-20636200D03*
X139373400Y-20636200D03*
D12*
X140643400Y-18096200D03*
D13*
X144453400Y-20636200D03*
D12*
X146993400Y-15556200D03*
D11*
X206679800Y-20636200D03*
X196519800Y-20636200D03*
D12*
X197789800Y-18096200D03*
D13*
X201599800Y-20636200D03*
D12*
X204139800Y-15556200D03*
D11*
X11429600Y-1587400D03*
X1269600Y-1587400D03*
D12*
X2539600Y952600D03*
D13*
X6349600Y-1587400D03*
D12*
X8889600Y3492600D03*
D11*
X35240600Y-1587400D03*
X25080600Y-1587400D03*
D12*
X26350600Y952600D03*
D13*
X30160600Y-1587400D03*
D12*
X32700600Y3492600D03*
D11*
X54289400Y-1587400D03*
X44129400Y-1587400D03*
D12*
X45399400Y952600D03*
D13*
X49209400Y-1587400D03*
D12*
X51749400Y3492600D03*
D11*
X73338200Y-1587400D03*
X63178200Y-1587400D03*
D12*
X64448200Y952600D03*
D13*
X68258200Y-1587400D03*
D12*
X70798200Y3492600D03*
D11*
X92387000Y-1587400D03*
X82227000Y-1587400D03*
D12*
X83497000Y952600D03*
D13*
X87307000Y-1587400D03*
D12*
X89847000Y3492600D03*
D11*
X111435800Y-1587400D03*
X101275800Y-1587400D03*
D12*
X102545800Y952600D03*
D13*
X106355800Y-1587400D03*
D12*
X108895800Y3492600D03*
D11*
X130484600Y-1587400D03*
X120324600Y-1587400D03*
D12*
X121594600Y952600D03*
D13*
X125404600Y-1587400D03*
D12*
X127944600Y3492600D03*
D11*
X149533400Y-1587400D03*
X139373400Y-1587400D03*
D12*
X140643400Y952600D03*
D13*
X144453400Y-1587400D03*
D12*
X146993400Y3492600D03*
D11*
X168582200Y-1587400D03*
X158422200Y-1587400D03*
D12*
X159692200Y952600D03*
D13*
X163502200Y-1587400D03*
D12*
X166042200Y3492600D03*
D11*
X187631000Y-1587400D03*
X177471000Y-1587400D03*
D12*
X178741000Y952600D03*
D13*
X182551000Y-1587400D03*
D12*
X185091000Y3492600D03*
D11*
X206679800Y-1587400D03*
X196519800Y-1587400D03*
D12*
X197789800Y952600D03*
D13*
X201599800Y-1587400D03*
D12*
X204139800Y3492600D03*
D11*
X230490800Y-1587400D03*
X220330800Y-1587400D03*
D12*
X221600800Y952600D03*
D13*
X225410800Y-1587400D03*
D12*
X227950800Y3492600D03*
D15*
X-9208200Y-6826300D03*
X18731800Y8413700D03*
X-6668200Y-6826300D03*
X-4128200Y-6826300D03*
X-1588200Y-6826300D03*
X951800Y-6826300D03*
X3491800Y-6826300D03*
X6031800Y-6826300D03*
X8571800Y-6826300D03*
X11111800Y-6826300D03*
X13651800Y-6826300D03*
X16191800Y-6826300D03*
X18731800Y-6826300D03*
X16191800Y8413700D03*
X13651800Y8413700D03*
X11111800Y8413700D03*
X8571800Y8413700D03*
X6031800Y8413700D03*
X3491800Y8413700D03*
X951800Y8413700D03*
X-1588200Y8413700D03*
X-4128200Y8413700D03*
X-6668200Y8413700D03*
D16*
X-9208200Y8413700D03*
M02*
