G04 #@! TF.GenerationSoftware,KiCad,Pcbnew,5.1.10-88a1d61d58~88~ubuntu18.04.1*
G04 #@! TF.CreationDate,2022-03-10T08:37:22-06:00*
G04 #@! TF.ProjectId,keyboard,6b657962-6f61-4726-942e-6b696361645f,rev?*
G04 #@! TF.SameCoordinates,Original*
G04 #@! TF.FileFunction,Legend,Top*
G04 #@! TF.FilePolarity,Positive*
%FSLAX46Y46*%
G04 Gerber Fmt 4.6, Leading zero omitted, Abs format (unit mm)*
G04 Created by KiCad (PCBNEW 5.1.10-88a1d61d58~88~ubuntu18.04.1) date 2022-03-10 08:37:22*
%MOMM*%
%LPD*%
G01*
G04 APERTURE LIST*
%ADD10C,0.381000*%
%ADD11C,0.150000*%
G04 APERTURE END LIST*
D10*
X-10478200Y7143700D02*
X-10478200Y9683700D01*
X-13018200Y-8096300D02*
X-13018200Y9683700D01*
X-13018200Y9683700D02*
X20001800Y9683700D01*
X20001800Y9683700D02*
X20001800Y-8096300D01*
X20001800Y-8096300D02*
X-13018200Y-8096300D01*
D11*
G36*
X-4589170Y-5050935D02*
G01*
X-4489170Y-5050935D01*
X-4489170Y-5550935D01*
X-4589170Y-5550935D01*
X-4589170Y-5050935D01*
G37*
X-4589170Y-5050935D02*
X-4489170Y-5050935D01*
X-4489170Y-5550935D01*
X-4589170Y-5550935D01*
X-4589170Y-5050935D01*
G36*
X-4589170Y-5050935D02*
G01*
X-4289170Y-5050935D01*
X-4289170Y-5150935D01*
X-4589170Y-5150935D01*
X-4589170Y-5050935D01*
G37*
X-4589170Y-5050935D02*
X-4289170Y-5050935D01*
X-4289170Y-5150935D01*
X-4589170Y-5150935D01*
X-4589170Y-5050935D01*
G36*
X-3989170Y-5050935D02*
G01*
X-3789170Y-5050935D01*
X-3789170Y-5150935D01*
X-3989170Y-5150935D01*
X-3989170Y-5050935D01*
G37*
X-3989170Y-5050935D02*
X-3789170Y-5050935D01*
X-3789170Y-5150935D01*
X-3989170Y-5150935D01*
X-3989170Y-5050935D01*
G36*
X-4589170Y-5450935D02*
G01*
X-3789170Y-5450935D01*
X-3789170Y-5550935D01*
X-4589170Y-5550935D01*
X-4589170Y-5450935D01*
G37*
X-4589170Y-5450935D02*
X-3789170Y-5450935D01*
X-3789170Y-5550935D01*
X-4589170Y-5550935D01*
X-4589170Y-5450935D01*
G36*
X-4189170Y-5250935D02*
G01*
X-4089170Y-5250935D01*
X-4089170Y-5350935D01*
X-4189170Y-5350935D01*
X-4189170Y-5250935D01*
G37*
X-4189170Y-5250935D02*
X-4089170Y-5250935D01*
X-4089170Y-5350935D01*
X-4189170Y-5350935D01*
X-4189170Y-5250935D01*
D10*
X-10478200Y7143700D02*
X-7938200Y7143700D01*
X-7938200Y7143700D02*
X-7938200Y9683700D01*
D11*
X-4472009Y-3712966D02*
X-4510104Y-3827252D01*
X-4510104Y-4017728D01*
X-4472009Y-4093919D01*
X-4433914Y-4132014D01*
X-4357723Y-4170109D01*
X-4281533Y-4170109D01*
X-4205342Y-4132014D01*
X-4167247Y-4093919D01*
X-4129152Y-4017728D01*
X-4091057Y-3865347D01*
X-4052961Y-3789157D01*
X-4014866Y-3751061D01*
X-3938676Y-3712966D01*
X-3862485Y-3712966D01*
X-3786295Y-3751061D01*
X-3748200Y-3789157D01*
X-3710104Y-3865347D01*
X-3710104Y-4055823D01*
X-3748200Y-4170109D01*
X-3710104Y-4398680D02*
X-3710104Y-4855823D01*
X-4510104Y-4627252D02*
X-3710104Y-4627252D01*
X-8770104Y6556048D02*
X-8770104Y6098905D01*
X-9570104Y6327476D02*
X-8770104Y6327476D01*
X-8770104Y5908429D02*
X-9570104Y5375095D01*
X-8770104Y5375095D02*
X-9570104Y5908429D01*
X-8770104Y4917952D02*
X-8770104Y4841762D01*
X-8808200Y4765572D01*
X-8846295Y4727476D01*
X-8922485Y4689381D01*
X-9074866Y4651286D01*
X-9265342Y4651286D01*
X-9417723Y4689381D01*
X-9493914Y4727476D01*
X-9532009Y4765572D01*
X-9570104Y4841762D01*
X-9570104Y4917952D01*
X-9532009Y4994143D01*
X-9493914Y5032238D01*
X-9417723Y5070333D01*
X-9265342Y5108429D01*
X-9074866Y5108429D01*
X-8922485Y5070333D01*
X-8846295Y5032238D01*
X-8808200Y4994143D01*
X-8770104Y4917952D01*
X-8732009Y3737000D02*
X-9760580Y4422714D01*
X-9570104Y3470333D02*
X-8770104Y3470333D01*
X-8770104Y3279857D01*
X-8808200Y3165572D01*
X-8884390Y3089381D01*
X-8960580Y3051286D01*
X-9112961Y3013191D01*
X-9227247Y3013191D01*
X-9379628Y3051286D01*
X-9455819Y3089381D01*
X-9532009Y3165572D01*
X-9570104Y3279857D01*
X-9570104Y3470333D01*
X-8770104Y2746524D02*
X-8770104Y2251286D01*
X-9074866Y2517952D01*
X-9074866Y2403667D01*
X-9112961Y2327476D01*
X-9151057Y2289381D01*
X-9227247Y2251286D01*
X-9417723Y2251286D01*
X-9493914Y2289381D01*
X-9532009Y2327476D01*
X-9570104Y2403667D01*
X-9570104Y2632238D01*
X-9532009Y2708429D01*
X-9493914Y2746524D01*
X16248942Y-4343490D02*
X16210847Y-4457776D01*
X16172752Y-4495871D01*
X16096561Y-4533966D01*
X15982276Y-4533966D01*
X15906085Y-4495871D01*
X15867990Y-4457776D01*
X15829895Y-4381585D01*
X15829895Y-4076823D01*
X16629895Y-4076823D01*
X16629895Y-4343490D01*
X16591800Y-4419680D01*
X16553704Y-4457776D01*
X16477514Y-4495871D01*
X16401323Y-4495871D01*
X16325133Y-4457776D01*
X16287038Y-4419680D01*
X16248942Y-4343490D01*
X16248942Y-4076823D01*
X16553704Y-4838728D02*
X16591800Y-4876823D01*
X16629895Y-4953014D01*
X16629895Y-5143490D01*
X16591800Y-5219680D01*
X16553704Y-5257776D01*
X16477514Y-5295871D01*
X16401323Y-5295871D01*
X16287038Y-5257776D01*
X15829895Y-4800633D01*
X15829895Y-5295871D01*
X8628942Y-4400633D02*
X8628942Y-4133966D01*
X8209895Y-4133966D02*
X9009895Y-4133966D01*
X9009895Y-4514919D01*
X9009895Y-4743490D02*
X9009895Y-5276823D01*
X8209895Y-4933966D01*
X6088942Y-4400633D02*
X6088942Y-4133966D01*
X5669895Y-4133966D02*
X6469895Y-4133966D01*
X6469895Y-4514919D01*
X6469895Y-5162538D02*
X6469895Y-5010157D01*
X6431800Y-4933966D01*
X6393704Y-4895871D01*
X6279419Y-4819680D01*
X6127038Y-4781585D01*
X5822276Y-4781585D01*
X5746085Y-4819680D01*
X5707990Y-4857776D01*
X5669895Y-4933966D01*
X5669895Y-5086347D01*
X5707990Y-5162538D01*
X5746085Y-5200633D01*
X5822276Y-5238728D01*
X6012752Y-5238728D01*
X6088942Y-5200633D01*
X6127038Y-5162538D01*
X6165133Y-5086347D01*
X6165133Y-4933966D01*
X6127038Y-4857776D01*
X6088942Y-4819680D01*
X6012752Y-4781585D01*
X3548942Y-4400633D02*
X3548942Y-4133966D01*
X3129895Y-4133966D02*
X3929895Y-4133966D01*
X3929895Y-4514919D01*
X3929895Y-5200633D02*
X3929895Y-4819680D01*
X3548942Y-4781585D01*
X3587038Y-4819680D01*
X3625133Y-4895871D01*
X3625133Y-5086347D01*
X3587038Y-5162538D01*
X3548942Y-5200633D01*
X3472752Y-5238728D01*
X3282276Y-5238728D01*
X3206085Y-5200633D01*
X3167990Y-5162538D01*
X3129895Y-5086347D01*
X3129895Y-4895871D01*
X3167990Y-4819680D01*
X3206085Y-4781585D01*
X-9570104Y-4114919D02*
X-9189152Y-3848252D01*
X-9570104Y-3657776D02*
X-8770104Y-3657776D01*
X-8770104Y-3962538D01*
X-8808200Y-4038728D01*
X-8846295Y-4076823D01*
X-8922485Y-4114919D01*
X-9036771Y-4114919D01*
X-9112961Y-4076823D01*
X-9151057Y-4038728D01*
X-9189152Y-3962538D01*
X-9189152Y-3657776D01*
X-9341533Y-4419680D02*
X-9341533Y-4800633D01*
X-9570104Y-4343490D02*
X-8770104Y-4610157D01*
X-9570104Y-4876823D01*
X-8770104Y-5067300D02*
X-9570104Y-5257776D01*
X-8998676Y-5410157D01*
X-9570104Y-5562538D01*
X-8770104Y-5753014D01*
X-6268200Y-4057776D02*
X-6230104Y-3981585D01*
X-6230104Y-3867300D01*
X-6268200Y-3753014D01*
X-6344390Y-3676823D01*
X-6420580Y-3638728D01*
X-6572961Y-3600633D01*
X-6687247Y-3600633D01*
X-6839628Y-3638728D01*
X-6915819Y-3676823D01*
X-6992009Y-3753014D01*
X-7030104Y-3867300D01*
X-7030104Y-3943490D01*
X-6992009Y-4057776D01*
X-6953914Y-4095871D01*
X-6687247Y-4095871D01*
X-6687247Y-3943490D01*
X-7030104Y-4438728D02*
X-6230104Y-4438728D01*
X-7030104Y-4895871D01*
X-6230104Y-4895871D01*
X-7030104Y-5276823D02*
X-6230104Y-5276823D01*
X-6230104Y-5467299D01*
X-6268200Y-5581585D01*
X-6344390Y-5657776D01*
X-6420580Y-5695871D01*
X-6572961Y-5733966D01*
X-6687247Y-5733966D01*
X-6839628Y-5695871D01*
X-6915819Y-5657776D01*
X-6992009Y-5581585D01*
X-7030104Y-5467299D01*
X-7030104Y-5276823D01*
X-1150104Y-3600633D02*
X-1950104Y-3867300D01*
X-1150104Y-4133966D01*
X-1873914Y-4857776D02*
X-1912009Y-4819680D01*
X-1950104Y-4705395D01*
X-1950104Y-4629204D01*
X-1912009Y-4514919D01*
X-1835819Y-4438728D01*
X-1759628Y-4400633D01*
X-1607247Y-4362538D01*
X-1492961Y-4362538D01*
X-1340580Y-4400633D01*
X-1264390Y-4438728D01*
X-1188200Y-4514919D01*
X-1150104Y-4629204D01*
X-1150104Y-4705395D01*
X-1188200Y-4819680D01*
X-1226295Y-4857776D01*
X-1873914Y-5657776D02*
X-1912009Y-5619680D01*
X-1950104Y-5505395D01*
X-1950104Y-5429204D01*
X-1912009Y-5314919D01*
X-1835819Y-5238728D01*
X-1759628Y-5200633D01*
X-1607247Y-5162538D01*
X-1492961Y-5162538D01*
X-1340580Y-5200633D01*
X-1264390Y-5238728D01*
X-1188200Y-5314919D01*
X-1150104Y-5429204D01*
X-1150104Y-5505395D01*
X-1188200Y-5619680D01*
X-1226295Y-5657776D01*
X1008942Y-4400633D02*
X1008942Y-4133966D01*
X589895Y-4133966D02*
X1389895Y-4133966D01*
X1389895Y-4514919D01*
X1123228Y-5162538D02*
X589895Y-5162538D01*
X1427990Y-4972061D02*
X856561Y-4781585D01*
X856561Y-5276823D01*
X11168942Y-4343490D02*
X11130847Y-4457776D01*
X11092752Y-4495871D01*
X11016561Y-4533966D01*
X10902276Y-4533966D01*
X10826085Y-4495871D01*
X10787990Y-4457776D01*
X10749895Y-4381585D01*
X10749895Y-4076823D01*
X11549895Y-4076823D01*
X11549895Y-4343490D01*
X11511800Y-4419680D01*
X11473704Y-4457776D01*
X11397514Y-4495871D01*
X11321323Y-4495871D01*
X11245133Y-4457776D01*
X11207038Y-4419680D01*
X11168942Y-4343490D01*
X11168942Y-4076823D01*
X10749895Y-5295871D02*
X10749895Y-4838728D01*
X10749895Y-5067300D02*
X11549895Y-5067300D01*
X11435609Y-4991109D01*
X11359419Y-4914919D01*
X11321323Y-4838728D01*
X13708942Y-4343490D02*
X13670847Y-4457776D01*
X13632752Y-4495871D01*
X13556561Y-4533966D01*
X13442276Y-4533966D01*
X13366085Y-4495871D01*
X13327990Y-4457776D01*
X13289895Y-4381585D01*
X13289895Y-4076823D01*
X14089895Y-4076823D01*
X14089895Y-4343490D01*
X14051800Y-4419680D01*
X14013704Y-4457776D01*
X13937514Y-4495871D01*
X13861323Y-4495871D01*
X13785133Y-4457776D01*
X13747038Y-4419680D01*
X13708942Y-4343490D01*
X13708942Y-4076823D01*
X14089895Y-4800633D02*
X14089895Y-5295871D01*
X13785133Y-5029204D01*
X13785133Y-5143490D01*
X13747038Y-5219680D01*
X13708942Y-5257776D01*
X13632752Y-5295871D01*
X13442276Y-5295871D01*
X13366085Y-5257776D01*
X13327990Y-5219680D01*
X13289895Y-5143490D01*
X13289895Y-4914919D01*
X13327990Y-4838728D01*
X13366085Y-4800633D01*
X18788942Y-4343490D02*
X18750847Y-4457776D01*
X18712752Y-4495871D01*
X18636561Y-4533966D01*
X18522276Y-4533966D01*
X18446085Y-4495871D01*
X18407990Y-4457776D01*
X18369895Y-4381585D01*
X18369895Y-4076823D01*
X19169895Y-4076823D01*
X19169895Y-4343490D01*
X19131800Y-4419680D01*
X19093704Y-4457776D01*
X19017514Y-4495871D01*
X18941323Y-4495871D01*
X18865133Y-4457776D01*
X18827038Y-4419680D01*
X18788942Y-4343490D01*
X18788942Y-4076823D01*
X19169895Y-5219680D02*
X19169895Y-5067300D01*
X19131800Y-4991109D01*
X19093704Y-4953014D01*
X18979419Y-4876823D01*
X18827038Y-4838728D01*
X18522276Y-4838728D01*
X18446085Y-4876823D01*
X18407990Y-4914919D01*
X18369895Y-4991109D01*
X18369895Y-5143490D01*
X18407990Y-5219680D01*
X18446085Y-5257776D01*
X18522276Y-5295871D01*
X18712752Y-5295871D01*
X18788942Y-5257776D01*
X18827038Y-5219680D01*
X18865133Y-5143490D01*
X18865133Y-4991109D01*
X18827038Y-4914919D01*
X18788942Y-4876823D01*
X18712752Y-4838728D01*
X18788942Y6578509D02*
X18750847Y6464223D01*
X18712752Y6426128D01*
X18636561Y6388033D01*
X18522276Y6388033D01*
X18446085Y6426128D01*
X18407990Y6464223D01*
X18369895Y6540414D01*
X18369895Y6845176D01*
X19169895Y6845176D01*
X19169895Y6578509D01*
X19131800Y6502319D01*
X19093704Y6464223D01*
X19017514Y6426128D01*
X18941323Y6426128D01*
X18865133Y6464223D01*
X18827038Y6502319D01*
X18788942Y6578509D01*
X18788942Y6845176D01*
X19169895Y5664223D02*
X19169895Y6045176D01*
X18788942Y6083271D01*
X18827038Y6045176D01*
X18865133Y5968985D01*
X18865133Y5778509D01*
X18827038Y5702319D01*
X18788942Y5664223D01*
X18712752Y5626128D01*
X18522276Y5626128D01*
X18446085Y5664223D01*
X18407990Y5702319D01*
X18369895Y5778509D01*
X18369895Y5968985D01*
X18407990Y6045176D01*
X18446085Y6083271D01*
X16248942Y6578509D02*
X16210847Y6464223D01*
X16172752Y6426128D01*
X16096561Y6388033D01*
X15982276Y6388033D01*
X15906085Y6426128D01*
X15867990Y6464223D01*
X15829895Y6540414D01*
X15829895Y6845176D01*
X16629895Y6845176D01*
X16629895Y6578509D01*
X16591800Y6502319D01*
X16553704Y6464223D01*
X16477514Y6426128D01*
X16401323Y6426128D01*
X16325133Y6464223D01*
X16287038Y6502319D01*
X16248942Y6578509D01*
X16248942Y6845176D01*
X16363228Y5702319D02*
X15829895Y5702319D01*
X16667990Y5892795D02*
X16096561Y6083271D01*
X16096561Y5588033D01*
X13708942Y6807080D02*
X13708942Y6540414D01*
X13289895Y6426128D02*
X13289895Y6807080D01*
X14089895Y6807080D01*
X14089895Y6426128D01*
X14089895Y5740414D02*
X14089895Y5892795D01*
X14051800Y5968985D01*
X14013704Y6007080D01*
X13899419Y6083271D01*
X13747038Y6121366D01*
X13442276Y6121366D01*
X13366085Y6083271D01*
X13327990Y6045176D01*
X13289895Y5968985D01*
X13289895Y5816604D01*
X13327990Y5740414D01*
X13366085Y5702319D01*
X13442276Y5664223D01*
X13632752Y5664223D01*
X13708942Y5702319D01*
X13747038Y5740414D01*
X13785133Y5816604D01*
X13785133Y5968985D01*
X13747038Y6045176D01*
X13708942Y6083271D01*
X13632752Y6121366D01*
X10749895Y6845176D02*
X11549895Y6845176D01*
X11549895Y6654700D01*
X11511800Y6540414D01*
X11435609Y6464223D01*
X11359419Y6426128D01*
X11207038Y6388033D01*
X11092752Y6388033D01*
X10940371Y6426128D01*
X10864180Y6464223D01*
X10787990Y6540414D01*
X10749895Y6654700D01*
X10749895Y6845176D01*
X11549895Y6121366D02*
X11549895Y5588033D01*
X10749895Y5930890D01*
X8286085Y6388033D02*
X8247990Y6426128D01*
X8209895Y6540414D01*
X8209895Y6616604D01*
X8247990Y6730890D01*
X8324180Y6807080D01*
X8400371Y6845176D01*
X8552752Y6883271D01*
X8667038Y6883271D01*
X8819419Y6845176D01*
X8895609Y6807080D01*
X8971800Y6730890D01*
X9009895Y6616604D01*
X9009895Y6540414D01*
X8971800Y6426128D01*
X8933704Y6388033D01*
X9009895Y5702319D02*
X9009895Y5854700D01*
X8971800Y5930890D01*
X8933704Y5968985D01*
X8819419Y6045176D01*
X8667038Y6083271D01*
X8362276Y6083271D01*
X8286085Y6045176D01*
X8247990Y6007080D01*
X8209895Y5930890D01*
X8209895Y5778509D01*
X8247990Y5702319D01*
X8286085Y5664223D01*
X8362276Y5626128D01*
X8552752Y5626128D01*
X8628942Y5664223D01*
X8667038Y5702319D01*
X8705133Y5778509D01*
X8705133Y5930890D01*
X8667038Y6007080D01*
X8628942Y6045176D01*
X8552752Y6083271D01*
X5669895Y6845176D02*
X6469895Y6845176D01*
X6469895Y6654700D01*
X6431800Y6540414D01*
X6355609Y6464223D01*
X6279419Y6426128D01*
X6127038Y6388033D01*
X6012752Y6388033D01*
X5860371Y6426128D01*
X5784180Y6464223D01*
X5707990Y6540414D01*
X5669895Y6654700D01*
X5669895Y6845176D01*
X6203228Y5702319D02*
X5669895Y5702319D01*
X6507990Y5892795D02*
X5936561Y6083271D01*
X5936561Y5588033D01*
X-3728200Y6864223D02*
X-3690104Y6940414D01*
X-3690104Y7054700D01*
X-3728200Y7168985D01*
X-3804390Y7245176D01*
X-3880580Y7283271D01*
X-4032961Y7321366D01*
X-4147247Y7321366D01*
X-4299628Y7283271D01*
X-4375819Y7245176D01*
X-4452009Y7168985D01*
X-4490104Y7054700D01*
X-4490104Y6978509D01*
X-4452009Y6864223D01*
X-4413914Y6826128D01*
X-4147247Y6826128D01*
X-4147247Y6978509D01*
X-4490104Y6483271D02*
X-3690104Y6483271D01*
X-4490104Y6026128D01*
X-3690104Y6026128D01*
X-4490104Y5645176D02*
X-3690104Y5645176D01*
X-3690104Y5454700D01*
X-3728200Y5340414D01*
X-3804390Y5264223D01*
X-3880580Y5226128D01*
X-4032961Y5188033D01*
X-4147247Y5188033D01*
X-4299628Y5226128D01*
X-4375819Y5264223D01*
X-4452009Y5340414D01*
X-4490104Y5454700D01*
X-4490104Y5645176D01*
X-1188200Y6864223D02*
X-1150104Y6940414D01*
X-1150104Y7054700D01*
X-1188200Y7168985D01*
X-1264390Y7245176D01*
X-1340580Y7283271D01*
X-1492961Y7321366D01*
X-1607247Y7321366D01*
X-1759628Y7283271D01*
X-1835819Y7245176D01*
X-1912009Y7168985D01*
X-1950104Y7054700D01*
X-1950104Y6978509D01*
X-1912009Y6864223D01*
X-1873914Y6826128D01*
X-1607247Y6826128D01*
X-1607247Y6978509D01*
X-1950104Y6483271D02*
X-1150104Y6483271D01*
X-1950104Y6026128D01*
X-1150104Y6026128D01*
X-1950104Y5645176D02*
X-1150104Y5645176D01*
X-1150104Y5454700D01*
X-1188200Y5340414D01*
X-1264390Y5264223D01*
X-1340580Y5226128D01*
X-1492961Y5188033D01*
X-1607247Y5188033D01*
X-1759628Y5226128D01*
X-1835819Y5264223D01*
X-1912009Y5340414D01*
X-1950104Y5454700D01*
X-1950104Y5645176D01*
X589895Y6845176D02*
X1389895Y6845176D01*
X1389895Y6654700D01*
X1351800Y6540414D01*
X1275609Y6464223D01*
X1199419Y6426128D01*
X1047038Y6388033D01*
X932752Y6388033D01*
X780371Y6426128D01*
X704180Y6464223D01*
X627990Y6540414D01*
X589895Y6654700D01*
X589895Y6845176D01*
X589895Y5626128D02*
X589895Y6083271D01*
X589895Y5854700D02*
X1389895Y5854700D01*
X1275609Y5930890D01*
X1199419Y6007080D01*
X1161323Y6083271D01*
X3129895Y6845176D02*
X3929895Y6845176D01*
X3929895Y6654700D01*
X3891800Y6540414D01*
X3815609Y6464223D01*
X3739419Y6426128D01*
X3587038Y6388033D01*
X3472752Y6388033D01*
X3320371Y6426128D01*
X3244180Y6464223D01*
X3167990Y6540414D01*
X3129895Y6654700D01*
X3129895Y6845176D01*
X3929895Y5892795D02*
X3929895Y5816604D01*
X3891800Y5740414D01*
X3853704Y5702319D01*
X3777514Y5664223D01*
X3625133Y5626128D01*
X3434657Y5626128D01*
X3282276Y5664223D01*
X3206085Y5702319D01*
X3167990Y5740414D01*
X3129895Y5816604D01*
X3129895Y5892795D01*
X3167990Y5968985D01*
X3206085Y6007080D01*
X3282276Y6045176D01*
X3434657Y6083271D01*
X3625133Y6083271D01*
X3777514Y6045176D01*
X3853704Y6007080D01*
X3891800Y5968985D01*
X3929895Y5892795D01*
X-7030104Y6845176D02*
X-6230104Y6845176D01*
X-6230104Y6654700D01*
X-6268200Y6540414D01*
X-6344390Y6464223D01*
X-6420580Y6426128D01*
X-6572961Y6388033D01*
X-6687247Y6388033D01*
X-6839628Y6426128D01*
X-6915819Y6464223D01*
X-6992009Y6540414D01*
X-7030104Y6654700D01*
X-7030104Y6845176D01*
X-6306295Y6083271D02*
X-6268200Y6045176D01*
X-6230104Y5968985D01*
X-6230104Y5778509D01*
X-6268200Y5702319D01*
X-6306295Y5664223D01*
X-6382485Y5626128D01*
X-6458676Y5626128D01*
X-6572961Y5664223D01*
X-7030104Y6121366D01*
X-7030104Y5626128D01*
M02*
