M48
; DRILL file {KiCad 5.1.10-88a1d61d58~88~ubuntu18.04.1} date Thu Mar 10 08:37:20 2022
; FORMAT={-:-/ absolute / inch / decimal}
; #@! TF.CreationDate,2022-03-10T08:37:20-06:00
; #@! TF.GenerationSoftware,Kicad,Pcbnew,5.1.10-88a1d61d58~88~ubuntu18.04.1
; #@! TF.FileFunction,NonPlated,1,2,NPTH
FMAT,2
INCH
T1C0.0689
T2C0.0866
T3C0.1181
T4C0.1200
T5C0.1570
%
G90
G05
T1
X0.05Y-0.0625
X0.05Y-0.8124
X0.05Y-1.5624
X0.45Y-0.0625
X0.45Y-0.8124
X0.45Y-1.5624
X0.6124Y-2.3124
X0.9874Y-0.0625
X0.9874Y-0.8124
X0.9874Y-1.5624
X1.0124Y-2.3124
X1.3874Y-0.0625
X1.3874Y-0.8124
X1.3874Y-1.5624
X1.4561Y-2.3124
X1.7374Y-0.0625
X1.7374Y-0.8124
X1.7374Y-1.5624
X1.8561Y-2.3124
X2.1374Y-0.0625
X2.1374Y-0.8124
X2.1374Y-1.5624
X2.3936Y-2.3124
X2.4873Y-0.0625
X2.4873Y-0.8124
X2.4873Y-1.5624
X2.7936Y-2.3124
X2.8873Y-0.0625
X2.8873Y-0.8124
X2.8873Y-1.5624
X3.2373Y-0.0625
X3.2373Y-0.8124
X3.2373Y-1.5624
X3.6123Y-2.3124
X3.6373Y-0.0625
X3.6373Y-0.8124
X3.6373Y-1.5624
X3.9872Y-0.0625
X3.9872Y-0.8124
X3.9872Y-1.5624
X4.0123Y-2.3124
X4.3872Y-0.0625
X4.3872Y-0.8124
X4.3872Y-1.5624
X4.7372Y-0.0625
X4.7372Y-0.8124
X4.7372Y-1.5624
X5.1122Y-2.3124
X5.1372Y-0.0625
X5.1372Y-0.8124
X5.1372Y-1.5624
X5.4871Y-0.0625
X5.4871Y-0.8124
X5.4871Y-1.5624
X5.5122Y-2.3124
X5.8871Y-0.0625
X5.8871Y-0.8124
X5.8871Y-1.5624
X6.2371Y-0.0625
X6.2371Y-0.8124
X6.2371Y-1.5624
X6.3308Y-2.3124
X6.6371Y-0.0625
X6.6371Y-0.8124
X6.6371Y-1.5624
X6.7308Y-2.3124
X6.987Y-0.0625
X6.987Y-0.8124
X6.987Y-1.5624
X7.2683Y-2.3124
X7.387Y-0.0625
X7.387Y-0.8124
X7.387Y-1.5624
X7.6683Y-2.3124
X7.737Y-0.0625
X7.737Y-0.8124
X7.737Y-1.5624
X8.112Y-2.3124
X8.137Y-0.0625
X8.137Y-0.8124
X8.137Y-1.5624
X8.512Y-2.3124
X8.6744Y-0.0625
X8.6744Y-0.8124
X8.6744Y-1.5624
X9.0744Y-0.0625
X9.0744Y-0.8124
X9.0744Y-1.5624
T2
X-0.375Y0.5
X-0.375Y-2.8748
X9.4994Y0.5
X9.4994Y-2.8748
T3
X0.1Y0.0375
X0.1Y-0.7124
X0.1Y-1.4624
X0.35Y0.1375
X0.35Y-0.6124
X0.35Y-1.3624
X0.6624Y-2.2124
X0.9124Y-2.1124
X1.0374Y0.0375
X1.0374Y-0.7124
X1.0374Y-1.4624
X1.2874Y0.1375
X1.2874Y-0.6124
X1.2874Y-1.3624
X1.5061Y-2.2124
X1.7561Y-2.1124
X1.7874Y0.0375
X1.7874Y-0.7124
X1.7874Y-1.4624
X2.0374Y0.1375
X2.0374Y-0.6124
X2.0374Y-1.3624
X2.4436Y-2.2124
X2.5373Y0.0375
X2.5373Y-0.7124
X2.5373Y-1.4624
X2.6936Y-2.1124
X2.7873Y0.1375
X2.7873Y-0.6124
X2.7873Y-1.3624
X3.2873Y0.0375
X3.2873Y-0.7124
X3.2873Y-1.4624
X3.5373Y0.1375
X3.5373Y-0.6124
X3.5373Y-1.3624
X3.6623Y-2.2124
X3.9123Y-2.1124
X4.0372Y0.0375
X4.0372Y-0.7124
X4.0372Y-1.4624
X4.2872Y0.1375
X4.2872Y-0.6124
X4.2872Y-1.3624
X4.7872Y0.0375
X4.7872Y-0.7124
X4.7872Y-1.4624
X5.0372Y0.1375
X5.0372Y-0.6124
X5.0372Y-1.3624
X5.1622Y-2.2124
X5.4122Y-2.1124
X5.5371Y0.0375
X5.5371Y-0.7124
X5.5371Y-1.4624
X5.7871Y0.1375
X5.7871Y-0.6124
X5.7871Y-1.3624
X6.2871Y0.0375
X6.2871Y-0.7124
X6.2871Y-1.4624
X6.3808Y-2.2124
X6.5371Y0.1375
X6.5371Y-0.6124
X6.5371Y-1.3624
X6.6308Y-2.1124
X7.037Y0.0375
X7.037Y-0.7124
X7.037Y-1.4624
X7.287Y0.1375
X7.287Y-0.6124
X7.287Y-1.3624
X7.3183Y-2.2124
X7.5683Y-2.1124
X7.787Y0.0375
X7.787Y-0.7124
X7.787Y-1.4624
X8.037Y0.1375
X8.037Y-0.6124
X8.037Y-1.3624
X8.162Y-2.2124
X8.412Y-2.1124
X8.7244Y0.0375
X8.7244Y-0.7124
X8.7244Y-1.4624
X8.9744Y0.1375
X8.9744Y-0.6124
X8.9744Y-1.3624
T4
X3.3423Y-2.0374
X4.2823Y-2.0374
X4.8422Y-2.0374
X5.7822Y-2.0374
T5
X0.25Y-0.0625
X0.25Y-0.8124
X0.25Y-1.5624
X0.8124Y-2.3124
X1.1874Y-0.0625
X1.1874Y-0.8124
X1.1874Y-1.5624
X1.6561Y-2.3124
X1.9374Y-0.0625
X1.9374Y-0.8124
X1.9374Y-1.5624
X2.5936Y-2.3124
X2.6873Y-0.0625
X2.6873Y-0.8124
X2.6873Y-1.5624
X3.3423Y-2.6374
X3.4373Y-0.0625
X3.4373Y-0.8124
X3.4373Y-1.5624
X3.8123Y-2.3124
X4.1872Y-0.0625
X4.1872Y-0.8124
X4.1872Y-1.5624
X4.2823Y-2.6374
X4.8422Y-2.6374
X4.9372Y-0.0625
X4.9372Y-0.8124
X4.9372Y-1.5624
X5.3122Y-2.3124
X5.6871Y-0.0625
X5.6871Y-0.8124
X5.6871Y-1.5624
X5.7822Y-2.6374
X6.4371Y-0.0625
X6.4371Y-0.8124
X6.4371Y-1.5624
X6.5308Y-2.3124
X7.187Y-0.0625
X7.187Y-0.8124
X7.187Y-1.5624
X7.4683Y-2.3124
X7.937Y-0.0625
X7.937Y-0.8124
X7.937Y-1.5624
X8.312Y-2.3124
X8.8744Y-0.0625
X8.8744Y-0.8124
X8.8744Y-1.5624
T0
M30
