M48
; DRILL file {KiCad 5.1.10-88a1d61d58~88~ubuntu18.04.1} date Thu Mar 10 08:37:20 2022
; FORMAT={-:-/ absolute / inch / decimal}
; #@! TF.CreationDate,2022-03-10T08:37:20-06:00
; #@! TF.GenerationSoftware,Kicad,Pcbnew,5.1.10-88a1d61d58~88~ubuntu18.04.1
; #@! TF.FileFunction,Plated,1,2,PTH
FMAT,2
INCH
T1C0.0157
T2C0.0430
%
G90
G05
T1
X-0.4375Y-0.125
X-0.0937Y-0.5937
X-0.0312Y-0.8124
X-0.0312Y-1.3749
X0.5312Y-2.0936
X0.7187Y-0.8749
X0.7187Y-1.5936
X0.9062Y-0.1562
X0.9062Y-0.8124
X0.9062Y-1.5624
X1.4687Y-2.0936
X1.6561Y-0.0625
X1.6561Y-0.8124
X1.6561Y-1.5624
X2.3124Y-2.0936
X2.4061Y-0.0625
X2.4061Y-0.8124
X2.4061Y-1.5624
X3.1561Y-0.0625
X3.1561Y-0.8124
X3.1561Y-1.5624
X3.531Y-2.0311
X3.906Y-0.0625
X3.906Y-0.8124
X3.906Y-1.3437
X4.656Y-0.0625
X4.656Y-0.8124
X4.656Y-1.5624
X4.9372Y-2.2186
X5.4082Y-0.0602
X5.4082Y-0.8102
X5.4082Y-1.3414
X6.1559Y-0.0625
X6.1559Y-0.8124
X6.1559Y-1.5936
X6.1559Y-2.0624
X6.9058Y-0.0625
X6.9058Y-0.8124
X6.9058Y-1.5624
X7.0933Y-2.0936
X7.6558Y-0.0625
X7.6558Y-0.8124
X7.6558Y-1.5624
X7.9058Y-2.0936
X8.5932Y-0.0625
X8.5932Y-0.8124
X8.5932Y-1.3124
T2
X-0.3625Y0.3312
X-0.3625Y-0.2688
X-0.2625Y0.3312
X-0.2625Y-0.2688
X-0.1625Y0.3312
X-0.1625Y-0.2688
X-0.0625Y0.3312
X-0.0625Y-0.2688
X0.0375Y0.3312
X0.0375Y-0.2688
X0.1375Y0.3312
X0.1375Y-0.2688
X0.2375Y0.3312
X0.2375Y-0.2688
X0.3375Y0.3312
X0.3375Y-0.2688
X0.4375Y0.3312
X0.4375Y-0.2688
X0.5375Y0.3312
X0.5375Y-0.2688
X0.6375Y0.3312
X0.6375Y-0.2688
X0.7375Y0.3312
X0.7375Y-0.2688
T0
M30
