G04 #@! TF.GenerationSoftware,KiCad,Pcbnew,5.1.10-88a1d61d58~88~ubuntu18.04.1*
G04 #@! TF.CreationDate,2022-03-10T08:37:22-06:00*
G04 #@! TF.ProjectId,keyboard,6b657962-6f61-4726-942e-6b696361645f,rev?*
G04 #@! TF.SameCoordinates,Original*
G04 #@! TF.FileFunction,Soldermask,Bot*
G04 #@! TF.FilePolarity,Negative*
%FSLAX46Y46*%
G04 Gerber Fmt 4.6, Leading zero omitted, Abs format (unit mm)*
G04 Created by KiCad (PCBNEW 5.1.10-88a1d61d58~88~ubuntu18.04.1) date 2022-03-10 08:37:22*
%MOMM*%
%LPD*%
G01*
G04 APERTURE LIST*
%ADD10C,0.010000*%
%ADD11C,2.200000*%
%ADD12R,2.550000X2.500000*%
%ADD13C,1.750000*%
%ADD14C,3.000000*%
%ADD15C,3.987800*%
%ADD16C,3.048000*%
%ADD17C,1.752600*%
%ADD18R,1.752600X1.752600*%
%ADD19R,1.400000X1.200000*%
%ADD20R,1.200000X1.400000*%
G04 APERTURE END LIST*
D10*
G36*
X235157805Y-55307003D02*
G01*
X235381630Y-55447133D01*
X235482472Y-55531091D01*
X235605814Y-55667488D01*
X235726034Y-55855379D01*
X235849323Y-56111699D01*
X235981870Y-56453384D01*
X236129867Y-56897371D01*
X236299502Y-57460595D01*
X236496967Y-58159994D01*
X236654643Y-58738098D01*
X236921597Y-59726896D01*
X238200523Y-60600765D01*
X238826484Y-61032085D01*
X239324787Y-61385036D01*
X239710502Y-61672364D01*
X239998700Y-61906814D01*
X240204453Y-62101134D01*
X240342831Y-62268070D01*
X240428905Y-62420368D01*
X240462987Y-62514291D01*
X240509268Y-62717401D01*
X240512924Y-62904988D01*
X240461928Y-63089475D01*
X240344254Y-63283283D01*
X240147876Y-63498836D01*
X239860768Y-63748556D01*
X239470904Y-64044866D01*
X238966258Y-64400189D01*
X238334804Y-64826947D01*
X238024002Y-65033715D01*
X236900538Y-65778838D01*
X236684703Y-66505402D01*
X236441702Y-67318633D01*
X236238516Y-67985450D01*
X236068976Y-68522409D01*
X235926911Y-68946066D01*
X235806150Y-69272977D01*
X235700522Y-69519697D01*
X235603856Y-69702782D01*
X235509983Y-69838788D01*
X235412730Y-69944271D01*
X235397746Y-69958230D01*
X235212183Y-70117658D01*
X235079795Y-70212067D01*
X235045754Y-70224084D01*
X234937622Y-70205727D01*
X234734966Y-70178681D01*
X234704560Y-70174963D01*
X234525801Y-70128176D01*
X234294731Y-70019738D01*
X233997807Y-69840557D01*
X233621487Y-69581537D01*
X233152228Y-69233586D01*
X232576487Y-68787610D01*
X232228245Y-68512130D01*
X231151024Y-67655300D01*
X229010912Y-67655300D01*
X228292331Y-67653765D01*
X227723697Y-67646076D01*
X227285630Y-67627609D01*
X226958749Y-67593739D01*
X226723675Y-67539840D01*
X226561027Y-67461288D01*
X226451426Y-67353458D01*
X226375491Y-67211724D01*
X226313844Y-67031463D01*
X226307415Y-67010125D01*
X226272337Y-66853453D01*
X226263355Y-66679694D01*
X226285672Y-66468717D01*
X226344491Y-66200388D01*
X226445015Y-65854573D01*
X226592446Y-65411140D01*
X226791988Y-64849955D01*
X227040497Y-64173398D01*
X227581269Y-62714311D01*
X226950867Y-60871337D01*
X226718127Y-60180691D01*
X226542420Y-59628058D01*
X226421001Y-59193024D01*
X226351124Y-58855172D01*
X226330043Y-58594086D01*
X226355013Y-58389349D01*
X226423288Y-58220546D01*
X226532122Y-58067261D01*
X226568179Y-58025803D01*
X226815891Y-57749300D01*
X231273466Y-57749300D01*
X232618717Y-56707605D01*
X233251167Y-56226692D01*
X233771325Y-55851741D01*
X234192150Y-55574761D01*
X234526602Y-55387759D01*
X234787640Y-55282741D01*
X234979440Y-55251634D01*
X235157805Y-55307003D01*
G37*
X235157805Y-55307003D02*
X235381630Y-55447133D01*
X235482472Y-55531091D01*
X235605814Y-55667488D01*
X235726034Y-55855379D01*
X235849323Y-56111699D01*
X235981870Y-56453384D01*
X236129867Y-56897371D01*
X236299502Y-57460595D01*
X236496967Y-58159994D01*
X236654643Y-58738098D01*
X236921597Y-59726896D01*
X238200523Y-60600765D01*
X238826484Y-61032085D01*
X239324787Y-61385036D01*
X239710502Y-61672364D01*
X239998700Y-61906814D01*
X240204453Y-62101134D01*
X240342831Y-62268070D01*
X240428905Y-62420368D01*
X240462987Y-62514291D01*
X240509268Y-62717401D01*
X240512924Y-62904988D01*
X240461928Y-63089475D01*
X240344254Y-63283283D01*
X240147876Y-63498836D01*
X239860768Y-63748556D01*
X239470904Y-64044866D01*
X238966258Y-64400189D01*
X238334804Y-64826947D01*
X238024002Y-65033715D01*
X236900538Y-65778838D01*
X236684703Y-66505402D01*
X236441702Y-67318633D01*
X236238516Y-67985450D01*
X236068976Y-68522409D01*
X235926911Y-68946066D01*
X235806150Y-69272977D01*
X235700522Y-69519697D01*
X235603856Y-69702782D01*
X235509983Y-69838788D01*
X235412730Y-69944271D01*
X235397746Y-69958230D01*
X235212183Y-70117658D01*
X235079795Y-70212067D01*
X235045754Y-70224084D01*
X234937622Y-70205727D01*
X234734966Y-70178681D01*
X234704560Y-70174963D01*
X234525801Y-70128176D01*
X234294731Y-70019738D01*
X233997807Y-69840557D01*
X233621487Y-69581537D01*
X233152228Y-69233586D01*
X232576487Y-68787610D01*
X232228245Y-68512130D01*
X231151024Y-67655300D01*
X229010912Y-67655300D01*
X228292331Y-67653765D01*
X227723697Y-67646076D01*
X227285630Y-67627609D01*
X226958749Y-67593739D01*
X226723675Y-67539840D01*
X226561027Y-67461288D01*
X226451426Y-67353458D01*
X226375491Y-67211724D01*
X226313844Y-67031463D01*
X226307415Y-67010125D01*
X226272337Y-66853453D01*
X226263355Y-66679694D01*
X226285672Y-66468717D01*
X226344491Y-66200388D01*
X226445015Y-65854573D01*
X226592446Y-65411140D01*
X226791988Y-64849955D01*
X227040497Y-64173398D01*
X227581269Y-62714311D01*
X226950867Y-60871337D01*
X226718127Y-60180691D01*
X226542420Y-59628058D01*
X226421001Y-59193024D01*
X226351124Y-58855172D01*
X226330043Y-58594086D01*
X226355013Y-58389349D01*
X226423288Y-58220546D01*
X226532122Y-58067261D01*
X226568179Y-58025803D01*
X226815891Y-57749300D01*
X231273466Y-57749300D01*
X232618717Y-56707605D01*
X233251167Y-56226692D01*
X233771325Y-55851741D01*
X234192150Y-55574761D01*
X234526602Y-55387759D01*
X234787640Y-55282741D01*
X234979440Y-55251634D01*
X235157805Y-55307003D01*
D11*
X241284800Y-73020400D03*
X241284800Y12699200D03*
X-9524400Y-73020400D03*
X-9524400Y12699200D03*
D12*
X195536300Y-53653800D03*
X182609300Y-56193800D03*
D13*
X194774300Y-58733800D03*
X184614300Y-58733800D03*
D14*
X185884300Y-56193800D03*
D15*
X189694300Y-58733800D03*
D14*
X192234300Y-53653800D03*
D12*
X47908100Y-53653800D03*
X34981100Y-56193800D03*
D13*
X47146100Y-58733800D03*
X36986100Y-58733800D03*
D14*
X38256100Y-56193800D03*
D15*
X42066100Y-58733800D03*
D14*
X44606100Y-53653800D03*
D12*
X171725300Y-53653800D03*
X158798300Y-56193800D03*
D13*
X170963300Y-58733800D03*
X160803300Y-58733800D03*
D14*
X162073300Y-56193800D03*
D15*
X165883300Y-58733800D03*
D14*
X168423300Y-53653800D03*
D12*
X71719100Y-53653800D03*
X58792100Y-56193800D03*
D13*
X70957100Y-58733800D03*
X60797100Y-58733800D03*
D14*
X62067100Y-56193800D03*
D15*
X65877100Y-58733800D03*
D14*
X68417100Y-53653800D03*
D12*
X216966200Y-53653800D03*
X204039200Y-56193800D03*
D13*
X216204200Y-58733800D03*
X206044200Y-58733800D03*
D14*
X207314200Y-56193800D03*
D15*
X211124200Y-58733800D03*
D14*
X213664200Y-53653800D03*
D15*
X122991000Y-66988800D03*
X146867000Y-66988800D03*
D16*
X122991000Y-51748800D03*
X146867000Y-51748800D03*
D12*
X140771000Y-53653800D03*
X127844000Y-56193800D03*
D13*
X140009000Y-58733800D03*
X129849000Y-58733800D03*
D14*
X131119000Y-56193800D03*
D15*
X134929000Y-58733800D03*
D14*
X137469000Y-53653800D03*
D15*
X84893400Y-66988800D03*
X108769400Y-66988800D03*
D16*
X84893400Y-51748800D03*
X108769400Y-51748800D03*
D12*
X102673400Y-53653800D03*
X89746400Y-56193800D03*
D13*
X101911400Y-58733800D03*
X91751400Y-58733800D03*
D14*
X93021400Y-56193800D03*
D15*
X96831400Y-58733800D03*
D14*
X99371400Y-53653800D03*
D12*
X26478200Y-53653800D03*
X13551200Y-56193800D03*
D13*
X25716200Y-58733800D03*
X15556200Y-58733800D03*
D14*
X16826200Y-56193800D03*
D15*
X20636200Y-58733800D03*
D14*
X23176200Y-53653800D03*
D12*
X112197800Y-34605000D03*
X99270800Y-37145000D03*
D13*
X111435800Y-39685000D03*
X101275800Y-39685000D03*
D14*
X102545800Y-37145000D03*
D15*
X106355800Y-39685000D03*
D14*
X108895800Y-34605000D03*
D12*
X55051400Y-34605000D03*
X42124400Y-37145000D03*
D13*
X54289400Y-39685000D03*
X44129400Y-39685000D03*
D14*
X45399400Y-37145000D03*
D15*
X49209400Y-39685000D03*
D14*
X51749400Y-34605000D03*
D12*
X131246600Y-34605000D03*
X118319600Y-37145000D03*
D13*
X130484600Y-39685000D03*
X120324600Y-39685000D03*
D14*
X121594600Y-37145000D03*
D15*
X125404600Y-39685000D03*
D14*
X127944600Y-34605000D03*
D12*
X36002600Y-34605000D03*
X23075600Y-37145000D03*
D13*
X35240600Y-39685000D03*
X25080600Y-39685000D03*
D14*
X26350600Y-37145000D03*
D15*
X30160600Y-39685000D03*
D14*
X32700600Y-34605000D03*
D12*
X150295400Y-34605000D03*
X137368400Y-37145000D03*
D13*
X149533400Y-39685000D03*
X139373400Y-39685000D03*
D14*
X140643400Y-37145000D03*
D15*
X144453400Y-39685000D03*
D14*
X146993400Y-34605000D03*
D12*
X12191600Y-34605000D03*
X-735400Y-37145000D03*
D13*
X11429600Y-39685000D03*
X1269600Y-39685000D03*
D14*
X2539600Y-37145000D03*
D15*
X6349600Y-39685000D03*
D14*
X8889600Y-34605000D03*
D12*
X169344200Y-34605000D03*
X156417200Y-37145000D03*
D13*
X168582200Y-39685000D03*
X158422200Y-39685000D03*
D14*
X159692200Y-37145000D03*
D15*
X163502200Y-39685000D03*
D14*
X166042200Y-34605000D03*
D12*
X74100200Y-34605000D03*
X61173200Y-37145000D03*
D13*
X73338200Y-39685000D03*
X63178200Y-39685000D03*
D14*
X64448200Y-37145000D03*
D15*
X68258200Y-39685000D03*
D14*
X70798200Y-34605000D03*
D12*
X188393000Y-34605000D03*
X175466000Y-37145000D03*
D13*
X187631000Y-39685000D03*
X177471000Y-39685000D03*
D14*
X178741000Y-37145000D03*
D15*
X182551000Y-39685000D03*
D14*
X185091000Y-34605000D03*
D12*
X231252800Y-34605000D03*
X218325800Y-37145000D03*
D13*
X230490800Y-39685000D03*
X220330800Y-39685000D03*
D14*
X221600800Y-37145000D03*
D15*
X225410800Y-39685000D03*
D14*
X227950800Y-34605000D03*
D12*
X93149000Y-34605000D03*
X80222000Y-37145000D03*
D13*
X92387000Y-39685000D03*
X82227000Y-39685000D03*
D14*
X83497000Y-37145000D03*
D15*
X87307000Y-39685000D03*
D14*
X89847000Y-34605000D03*
D12*
X207441800Y-34605000D03*
X194514800Y-37145000D03*
D13*
X206679800Y-39685000D03*
X196519800Y-39685000D03*
D14*
X197789800Y-37145000D03*
D15*
X201599800Y-39685000D03*
D14*
X204139800Y-34605000D03*
D12*
X188393000Y-15556200D03*
X175466000Y-18096200D03*
D13*
X187631000Y-20636200D03*
X177471000Y-20636200D03*
D14*
X178741000Y-18096200D03*
D15*
X182551000Y-20636200D03*
D14*
X185091000Y-15556200D03*
D12*
X169344200Y-15556200D03*
X156417200Y-18096200D03*
D13*
X168582200Y-20636200D03*
X158422200Y-20636200D03*
D14*
X159692200Y-18096200D03*
D15*
X163502200Y-20636200D03*
D14*
X166042200Y-15556200D03*
D12*
X231252800Y-15556200D03*
X218325800Y-18096200D03*
D13*
X230490800Y-20636200D03*
X220330800Y-20636200D03*
D14*
X221600800Y-18096200D03*
D15*
X225410800Y-20636200D03*
D14*
X227950800Y-15556200D03*
D12*
X131246600Y-15556200D03*
X118319600Y-18096200D03*
D13*
X130484600Y-20636200D03*
X120324600Y-20636200D03*
D14*
X121594600Y-18096200D03*
D15*
X125404600Y-20636200D03*
D14*
X127944600Y-15556200D03*
D12*
X112197800Y-15556200D03*
X99270800Y-18096200D03*
D13*
X111435800Y-20636200D03*
X101275800Y-20636200D03*
D14*
X102545800Y-18096200D03*
D15*
X106355800Y-20636200D03*
D14*
X108895800Y-15556200D03*
D12*
X93149000Y-15556200D03*
X80222000Y-18096200D03*
D13*
X92387000Y-20636200D03*
X82227000Y-20636200D03*
D14*
X83497000Y-18096200D03*
D15*
X87307000Y-20636200D03*
D14*
X89847000Y-15556200D03*
D12*
X74100200Y-15556200D03*
X61173200Y-18096200D03*
D13*
X73338200Y-20636200D03*
X63178200Y-20636200D03*
D14*
X64448200Y-18096200D03*
D15*
X68258200Y-20636200D03*
D14*
X70798200Y-15556200D03*
D12*
X55051400Y-15556200D03*
X42124400Y-18096200D03*
D13*
X54289400Y-20636200D03*
X44129400Y-20636200D03*
D14*
X45399400Y-18096200D03*
D15*
X49209400Y-20636200D03*
D14*
X51749400Y-15556200D03*
D12*
X36002600Y-15556200D03*
X23075600Y-18096200D03*
D13*
X35240600Y-20636200D03*
X25080600Y-20636200D03*
D14*
X26350600Y-18096200D03*
D15*
X30160600Y-20636200D03*
D14*
X32700600Y-15556200D03*
D12*
X12191600Y-15556200D03*
X-735400Y-18096200D03*
D13*
X11429600Y-20636200D03*
X1269600Y-20636200D03*
D14*
X2539600Y-18096200D03*
D15*
X6349600Y-20636200D03*
D14*
X8889600Y-15556200D03*
D12*
X150295400Y-15556200D03*
X137368400Y-18096200D03*
D13*
X149533400Y-20636200D03*
X139373400Y-20636200D03*
D14*
X140643400Y-18096200D03*
D15*
X144453400Y-20636200D03*
D14*
X146993400Y-15556200D03*
D12*
X207441800Y-15556200D03*
X194514800Y-18096200D03*
D13*
X206679800Y-20636200D03*
X196519800Y-20636200D03*
D14*
X197789800Y-18096200D03*
D15*
X201599800Y-20636200D03*
D14*
X204139800Y-15556200D03*
D12*
X12191600Y3492600D03*
X-735400Y952600D03*
D13*
X11429600Y-1587400D03*
X1269600Y-1587400D03*
D14*
X2539600Y952600D03*
D15*
X6349600Y-1587400D03*
D14*
X8889600Y3492600D03*
D12*
X36002600Y3492600D03*
X23075600Y952600D03*
D13*
X35240600Y-1587400D03*
X25080600Y-1587400D03*
D14*
X26350600Y952600D03*
D15*
X30160600Y-1587400D03*
D14*
X32700600Y3492600D03*
D12*
X55051400Y3492600D03*
X42124400Y952600D03*
D13*
X54289400Y-1587400D03*
X44129400Y-1587400D03*
D14*
X45399400Y952600D03*
D15*
X49209400Y-1587400D03*
D14*
X51749400Y3492600D03*
D12*
X74100200Y3492600D03*
X61173200Y952600D03*
D13*
X73338200Y-1587400D03*
X63178200Y-1587400D03*
D14*
X64448200Y952600D03*
D15*
X68258200Y-1587400D03*
D14*
X70798200Y3492600D03*
D12*
X93149000Y3492600D03*
X80222000Y952600D03*
D13*
X92387000Y-1587400D03*
X82227000Y-1587400D03*
D14*
X83497000Y952600D03*
D15*
X87307000Y-1587400D03*
D14*
X89847000Y3492600D03*
D12*
X112197800Y3492600D03*
X99270800Y952600D03*
D13*
X111435800Y-1587400D03*
X101275800Y-1587400D03*
D14*
X102545800Y952600D03*
D15*
X106355800Y-1587400D03*
D14*
X108895800Y3492600D03*
D12*
X131246600Y3492600D03*
X118319600Y952600D03*
D13*
X130484600Y-1587400D03*
X120324600Y-1587400D03*
D14*
X121594600Y952600D03*
D15*
X125404600Y-1587400D03*
D14*
X127944600Y3492600D03*
D12*
X150295400Y3492600D03*
X137368400Y952600D03*
D13*
X149533400Y-1587400D03*
X139373400Y-1587400D03*
D14*
X140643400Y952600D03*
D15*
X144453400Y-1587400D03*
D14*
X146993400Y3492600D03*
D12*
X169344200Y3492600D03*
X156417200Y952600D03*
D13*
X168582200Y-1587400D03*
X158422200Y-1587400D03*
D14*
X159692200Y952600D03*
D15*
X163502200Y-1587400D03*
D14*
X166042200Y3492600D03*
D12*
X188393000Y3492600D03*
X175466000Y952600D03*
D13*
X187631000Y-1587400D03*
X177471000Y-1587400D03*
D14*
X178741000Y952600D03*
D15*
X182551000Y-1587400D03*
D14*
X185091000Y3492600D03*
D12*
X207441800Y3492600D03*
X194514800Y952600D03*
D13*
X206679800Y-1587400D03*
X196519800Y-1587400D03*
D14*
X197789800Y952600D03*
D15*
X201599800Y-1587400D03*
D14*
X204139800Y3492600D03*
D12*
X231252800Y3492600D03*
X218325800Y952600D03*
D13*
X230490800Y-1587400D03*
X220330800Y-1587400D03*
D14*
X221600800Y952600D03*
D15*
X225410800Y-1587400D03*
D14*
X227950800Y3492600D03*
D17*
X-9208200Y-6826300D03*
X18731800Y8413700D03*
X-6668200Y-6826300D03*
X-4128200Y-6826300D03*
X-1588200Y-6826300D03*
X951800Y-6826300D03*
X3491800Y-6826300D03*
X6031800Y-6826300D03*
X8571800Y-6826300D03*
X11111800Y-6826300D03*
X13651800Y-6826300D03*
X16191800Y-6826300D03*
X18731800Y-6826300D03*
X16191800Y8413700D03*
X13651800Y8413700D03*
X11111800Y8413700D03*
X8571800Y8413700D03*
X6031800Y8413700D03*
X3491800Y8413700D03*
X951800Y8413700D03*
X-1588200Y8413700D03*
X-4128200Y8413700D03*
X-6668200Y8413700D03*
D18*
X-9208200Y8413700D03*
D19*
X50003100Y-63608600D03*
X50003100Y-60208600D03*
X219061200Y-63608600D03*
X219061200Y-60208600D03*
X197631300Y-63608600D03*
X197631300Y-60208600D03*
X173820300Y-63608600D03*
X173820300Y-60208600D03*
X142866000Y-63608600D03*
X142866000Y-60208600D03*
X104768400Y-63608600D03*
X104768400Y-60208600D03*
X28573200Y-63608600D03*
X28573200Y-60208600D03*
X73814100Y-63608600D03*
X73814100Y-60208600D03*
X95244000Y-44559800D03*
X95244000Y-41159800D03*
X76195200Y-44559800D03*
X76195200Y-41159800D03*
X114292800Y-44559800D03*
X114292800Y-41159800D03*
X57146400Y-44559800D03*
X57146400Y-41159800D03*
X133341600Y-44559800D03*
X133341600Y-41159800D03*
X233347800Y-44559800D03*
X233347800Y-41159800D03*
X38097600Y-44559800D03*
X38097600Y-41159800D03*
X152390400Y-44559800D03*
X152390400Y-41159800D03*
X14286600Y-44559800D03*
X14286600Y-41159800D03*
X209536800Y-44559800D03*
X209536800Y-41159800D03*
X171439200Y-44559800D03*
X171439200Y-41159800D03*
X190375400Y-44559800D03*
X190375400Y-41159800D03*
X233347800Y-25511000D03*
X233347800Y-22111000D03*
X209536800Y-25511000D03*
X209536800Y-22111000D03*
X133341600Y-25511000D03*
X133341600Y-22111000D03*
X190488000Y-25511000D03*
X190488000Y-22111000D03*
X95244000Y-25511000D03*
X95244000Y-22111000D03*
X14286600Y-25511000D03*
X14286600Y-22111000D03*
X38097600Y-25511000D03*
X38097600Y-22111000D03*
X152390400Y-25511000D03*
X152390400Y-22111000D03*
X171439200Y-25511000D03*
X171439200Y-22111000D03*
X114292800Y-25511000D03*
X114292800Y-22111000D03*
X57146400Y-25623600D03*
X57146400Y-22223600D03*
X76195200Y-25511000D03*
X76195200Y-22111000D03*
D20*
X18367700Y3174800D03*
X14967700Y3174800D03*
D19*
X38097600Y-6349600D03*
X38097600Y-2949600D03*
X57146400Y-6462200D03*
X57146400Y-3062200D03*
X76195200Y-6462200D03*
X76195200Y-3062200D03*
X95244000Y-6462200D03*
X95244000Y-3062200D03*
X133341600Y-6462200D03*
X133341600Y-3062200D03*
X152390400Y-6574800D03*
X152390400Y-3174800D03*
X171439200Y-6462200D03*
X171439200Y-3062200D03*
X190375400Y-6462200D03*
X190375400Y-3062200D03*
X233347800Y-6462200D03*
X233347800Y-3062200D03*
X209536800Y-6462200D03*
X209536800Y-3062200D03*
X114292800Y-6349600D03*
X114292800Y-2949600D03*
M02*
